<svg width="439" height="433" viewBox="0 0 439 433" fill="none" xmlns="http://www.w3.org/2000/svg">
<path d="M35.8092 1.20148C33.7492 1.80231 32.29 3.08981 31.26 5.14981C28.17 10.9865 31.0025 31.1573 38.0409 54.0749C53.0617 103.086 81.6443 185.057 92.2018 209.434C98.3818 223.939 107.566 240.419 113.489 247.715C122.072 258.359 130.054 262.65 141.384 262.65C146.964 262.65 147.994 262.135 163.1 252.436C169.194 248.488 174.43 245.655 174.859 245.999C177.177 248.488 191.254 275.611 213.485 320.588C255.543 405.649 265.5 421.7 281.207 429.425C286.443 432 287.473 432.171 295.456 432.171C303.266 432.171 304.554 431.914 309.618 429.511C320.176 424.361 327.729 415.52 331.248 404.018C333.651 396.121 333.136 386.765 329.875 379.727C326.527 372.431 308.846 348.484 229.364 243.338C157.95 148.921 63.6193 26.0074 48.4267 7.63898C43.0192 1.20148 40.2726 -0.25769 35.8092 1.20148ZM86.7943 81.8849C155.118 171.323 283.439 341.96 304.468 371.23C315.455 386.594 317.257 390.8 315.712 397.151C312.966 408.052 304.296 416.292 295.627 416.292C291.679 416.292 284.812 412.773 281.121 408.911C272.109 399.297 258.29 374.062 224.557 305.567C197.777 251.063 187.048 231.493 181.984 227.459C177.434 223.854 175.632 224.626 154.86 237.93C140.698 247.114 138.552 248.059 136.149 245.827C133.831 243.767 125.505 231.836 121.814 225.313C116.321 215.699 105.506 190.378 94.0043 160.508C81.2151 127.377 54.0917 49.3541 51.6884 39.1399C51.1734 36.9082 51.2592 36.7365 52.5467 37.7665C53.3192 38.3674 68.7693 58.2807 86.7943 81.8849Z" fill="#494E2C"/>
<path d="M346.27 4.89249C328.76 20.9433 261.209 87.4643 259.063 90.8118C250.48 104.288 248.592 119.051 253.57 134.329C255.63 140.767 260.866 150.809 265.243 156.818L269.192 162.139L244.3 186.516C220.095 210.292 219.494 210.893 219.494 214.24C219.58 219.82 224.129 223.768 229.193 222.738C231.253 222.309 237.262 216.901 253.828 200.507C265.844 188.662 276.917 177.847 278.462 176.474L281.208 173.984L285.5 177.16C296.058 184.971 309.104 189.091 322.923 189.177C334.254 189.263 341.721 187.203 349.532 182.053C356.656 177.418 438.026 95.7043 438.885 92.4426C439.142 91.1551 438.97 88.9235 438.37 87.4643C436.052 81.8851 430.473 80.7693 424.98 84.8893C423.177 86.2626 406.954 102.056 389.015 120.081L356.399 152.784L348.931 145.316C344.725 141.196 341.378 137.591 341.378 137.248C341.378 136.99 356.399 122.141 374.767 104.373C393.307 86.4343 408.585 70.9843 409.186 69.5251C411.675 63.4309 405.924 57.0792 399.401 58.7101C398.285 58.9676 381.977 74.0743 363.265 92.3568L329.104 125.489L321.722 118.021L314.34 110.639L337.944 87.8076C384.123 43.0025 383.436 43.7751 383.436 39.7409C383.436 33.7325 377.943 29.9559 372.535 32.1875C371.162 32.7884 354.854 47.9809 336.228 66.0918L302.495 98.8801L295.285 91.6701L288.161 84.546L299.92 72.9584C306.443 66.5209 323.267 50.1267 337.344 36.4792C362.664 11.7592 362.836 11.5875 362.836 8.06833C362.836 3.26166 359.66 -1.52588e-05 355.025 -1.52588e-05C352.107 -1.52588e-05 350.905 0.686646 346.27 4.89249ZM310.735 130.295L344.897 164.457L342.923 166.259C337 171.839 323.095 174.07 312.194 171.324C301.98 168.663 296.143 165.229 287.303 156.217C268.076 136.819 262.497 116.047 272.539 100.854C274.256 98.2793 275.887 96.1335 276.144 96.1335C276.402 96.1335 291.938 111.498 310.735 130.295Z" fill="#494E2C"/>
<path d="M112.459 276.555C69.7993 308.828 19.1576 352.346 9.54423 365.135C-0.927454 378.954 -2.72996 392.173 3.87922 406.335C11.0892 421.7 32.6334 432.515 49.7143 429.339C62.5035 426.935 68.941 421.614 103.789 384.705C133.917 352.775 182.241 299.902 185.417 295.267C189.709 289.001 182.756 280.332 175.718 283.25C174.345 283.851 165.675 292.692 155.804 303.678C131.771 330.459 99.9269 364.878 82.4169 382.903C55.3793 410.799 52.7185 412.773 42.9335 412.859C28.7709 412.859 16.9259 402.644 16.9259 390.37C16.9259 382.216 20.2734 377.066 34.0926 363.676C52.5468 345.823 85.7644 318.013 117.523 293.636C124.475 288.4 130.741 283.164 131.514 282.134C135.033 277.156 130.913 269.517 124.819 269.517C122.329 269.517 120.012 270.89 112.459 276.555Z" fill="#494E2C"/>
</svg>
